<svg width="24" height="24" viewBox="0 0 24 24" fill="none" xmlns="http://www.w3.org/2000/svg">
<circle cx="12.2578" cy="12.3052" r="4.5" fill="#329696"/>
<path d="M21.5 12.25C21.5 17.3586 17.3586 21.5 12.25 21.5C7.14136 21.5 3 17.3586 3 12.25C3 7.14136 7.14136 3 12.25 3C17.3586 3 21.5 7.14136 21.5 12.25ZM4.76466 12.25C4.76466 16.384 8.11596 19.7353 12.25 19.7353C16.384 19.7353 19.7353 16.384 19.7353 12.25C19.7353 8.11596 16.384 4.76466 12.25 4.76466C8.11596 4.76466 4.76466 8.11596 4.76466 12.25Z" fill="#329696"/>
<rect x="20" y="11.114" width="4" height="2" fill="#329696"/>
<rect y="11.114" width="4" height="2" fill="#329696"/>
<rect x="13.1279" width="4" height="2" transform="rotate(90 13.1279 0)" fill="#329696"/>
<rect x="13.1279" y="20" width="4" height="2" transform="rotate(90 13.1279 20)" fill="#329696"/>
</svg>
